<svg width="64" height="64" viewBox="0 0 64 64" fill="none" xmlns="http://www.w3.org/2000/svg">
<path d="M8 32C8 18.7452 18.7452 8 32 8V8C45.2548 8 56 18.7452 56 32V32C56 45.2548 45.2548 56 32 56V56C18.7452 56 8 45.2548 8 32V32Z" fill="#191D21"/>
<path fill-rule="evenodd" clip-rule="evenodd" d="M31.9943 16.4C28.0948 16.402 24.3231 17.7832 21.3537 20.2964C18.3843 22.8097 16.4109 26.2913 15.7862 30.1186C15.1615 33.9458 15.9263 37.8693 17.9439 41.1873C19.9615 44.5053 23.1003 47.0016 26.7991 48.2297C27.6151 48.3812 27.9224 47.8754 27.9224 47.4454C27.9224 47.0154 27.9061 45.7686 27.9007 44.4055C23.3311 45.3927 22.3655 42.4772 22.3655 42.4772C21.6202 40.584 20.543 40.0864 20.543 40.0864C19.0525 39.0749 20.6546 39.0938 20.6546 39.0938C22.3056 39.2101 23.1733 40.7787 23.1733 40.7787C24.6367 43.275 27.0167 42.5529 27.9524 42.131C28.0992 41.0735 28.5263 40.3541 28.9968 39.9457C25.3466 39.5346 21.5114 38.1337 21.5114 31.8754C21.4887 30.2523 22.0945 28.6827 23.2032 27.4913C23.0346 27.0802 22.4715 25.4196 23.3637 23.1641C23.3637 23.1641 24.7428 22.7259 27.8816 24.8382C30.574 24.1061 33.4146 24.1061 36.107 24.8382C39.2431 22.7259 40.6194 23.1641 40.6194 23.1641C41.5143 25.4142 40.9513 27.0748 40.7827 27.4913C41.8949 28.6829 42.5019 30.2552 42.4772 31.8808C42.4772 38.1526 38.6338 39.5346 34.9781 39.9376C35.5657 40.4461 36.0906 41.4386 36.0906 42.964C36.0906 45.1493 36.0716 46.9072 36.0716 47.4454C36.0716 47.8808 36.3681 48.3893 37.2004 48.2297C40.8996 47.0014 44.0387 44.5047 46.0562 41.1861C48.0738 37.8675 48.8382 33.9435 48.2128 30.1159C47.5875 26.2883 45.613 22.8067 42.6426 20.2938C39.6723 17.781 35.8997 16.4007 31.9997 16.4H31.9943Z" fill="white"/>
<path d="M21.7885 39.851C21.7532 39.9322 21.6226 39.9565 21.5165 39.8997C21.4104 39.8429 21.3316 39.7375 21.3697 39.6536C21.4077 39.5698 21.5356 39.5481 21.6417 39.6049C21.7477 39.6617 21.8293 39.7699 21.7885 39.851Z" fill="white"/>
<path d="M22.4547 40.5894C22.3984 40.6176 22.334 40.6255 22.2724 40.6117C22.2109 40.5979 22.1561 40.5632 22.1175 40.5137C22.0114 40.4001 21.9896 40.2432 22.0712 40.1729C22.1528 40.1026 22.2997 40.135 22.4058 40.2486C22.5119 40.3622 22.5363 40.5191 22.4547 40.5894Z" fill="white"/>
<path d="M23.1023 41.5278C23.0017 41.5981 22.8303 41.5278 22.7351 41.3872C22.7088 41.362 22.6878 41.3317 22.6735 41.2982C22.6592 41.2648 22.6519 41.2288 22.6519 41.1925C22.6519 41.1561 22.6592 41.1201 22.6735 41.0867C22.6878 41.0532 22.7088 41.023 22.7351 40.9977C22.8357 40.9301 23.0071 40.9977 23.1023 41.1357C23.1975 41.2736 23.2002 41.4575 23.1023 41.5278V41.5278Z" fill="white"/>
<path d="M23.9808 42.4366C23.8911 42.5367 23.7088 42.5096 23.5592 42.3744C23.4096 42.2392 23.3743 42.0553 23.464 41.9579C23.5538 41.8605 23.736 41.8876 23.8911 42.0201C24.0461 42.1526 24.076 42.3392 23.9808 42.4366V42.4366Z" fill="white"/>
<path d="M25.2129 42.9667C25.1721 43.0938 24.9872 43.1506 24.8022 43.0965C24.6172 43.0424 24.4948 42.8909 24.5302 42.7611C24.5656 42.6313 24.7532 42.5718 24.9409 42.6313C25.1286 42.6908 25.2483 42.8341 25.2129 42.9667Z" fill="white"/>
<path d="M26.5567 43.0586C26.5567 43.1911 26.4044 43.3047 26.2086 43.3074C26.0127 43.3101 25.8522 43.2019 25.8522 43.0694C25.8522 42.9369 26.0045 42.8233 26.2004 42.8206C26.3962 42.8179 26.5567 42.9234 26.5567 43.0586Z" fill="white"/>
<path d="M27.8078 42.8504C27.8323 42.9829 27.6963 43.1209 27.5005 43.1533C27.3046 43.1858 27.1333 43.1073 27.1088 42.9775C27.0843 42.8477 27.2257 42.7071 27.4161 42.6719C27.6065 42.6367 27.7833 42.7179 27.8078 42.8504Z" fill="white"/>
<path d="M32 48C23.1634 48 16 40.8366 16 32H0C0 49.6731 14.3269 64 32 64V48ZM48 32C48 40.8366 40.8366 48 32 48V64C49.6731 64 64 49.6731 64 32H48ZM32 16C40.8366 16 48 23.1634 48 32H64C64 14.3269 49.6731 0 32 0V16ZM32 0C14.3269 0 0 14.3269 0 32H16C16 23.1634 23.1634 16 32 16V0Z" fill="#191D21"/>
</svg>
