<svg width="64" height="64" viewBox="0 0 64 64" fill="none" xmlns="http://www.w3.org/2000/svg">
<path d="M8 32C8 18.7452 18.7452 8 32 8V8C45.2548 8 56 18.7452 56 32V32C56 45.2548 45.2548 56 32 56V56C18.7452 56 8 45.2548 8 32V32Z" fill="#191D21"/>
<path d="M32.0038 20.1957C35.8516 20.1957 36.3033 20.2128 37.8241 20.2814C39.2305 20.3443 39.9909 20.5787 40.4998 20.7788C41.1744 21.0418 41.6547 21.3506 42.1578 21.8537C42.6609 22.3568 42.9754 22.8371 43.2326 23.5117C43.427 24.0205 43.6672 24.7809 43.7301 26.1874C43.7987 27.7082 43.8158 28.1599 43.8158 32.0076C43.8158 35.8554 43.7987 36.307 43.7301 37.8278C43.6672 39.2343 43.4328 39.9947 43.2326 40.5035C42.9697 41.1782 42.6609 41.6584 42.1578 42.1616C41.6547 42.6647 41.1744 42.9791 40.4998 43.2364C39.9909 43.4308 39.2305 43.6709 37.8241 43.7338C36.3033 43.8024 35.8516 43.8196 32.0038 43.8196C28.1561 43.8196 27.7044 43.8024 26.1836 43.7338C24.7772 43.6709 24.0168 43.4365 23.5079 43.2364C22.8333 42.9734 22.353 42.6647 21.8499 42.1616C21.3468 41.6584 21.0323 41.1782 20.775 40.5035C20.5806 39.9947 20.3405 39.2343 20.2776 37.8278C20.209 36.307 20.1919 35.8554 20.1919 32.0076C20.1919 28.1599 20.209 27.7082 20.2776 26.1874C20.3405 24.7809 20.5749 24.0205 20.775 23.5117C21.038 22.8371 21.3468 22.3568 21.8499 21.8537C22.353 21.3506 22.8333 21.0361 23.5079 20.7788C24.0168 20.5844 24.7772 20.3443 26.1836 20.2814C27.7044 20.2071 28.1618 20.1957 32.0038 20.1957ZM32.0038 17.6C28.0932 17.6 27.6015 17.6172 26.0636 17.6858C24.5313 17.7544 23.485 18.0002 22.5703 18.3547C21.6212 18.7206 20.8208 19.218 20.0204 20.0184C19.2199 20.8189 18.7282 21.625 18.3566 22.5683C18.0021 23.4831 17.7563 24.5294 17.6877 26.0673C17.6191 27.5996 17.6019 28.0913 17.6019 32.0019C17.6019 35.9125 17.6191 36.4042 17.6877 37.9422C17.7563 39.4744 18.0021 40.5207 18.3566 41.4412C18.7225 42.3903 19.2199 43.1907 20.0204 43.9911C20.8208 44.7915 21.6269 45.2832 22.5703 45.6548C23.485 46.0093 24.5313 46.2552 26.0693 46.3238C27.6072 46.3924 28.0932 46.4095 32.0096 46.4095C35.9259 46.4095 36.4119 46.3924 37.9499 46.3238C39.4821 46.2552 40.5284 46.0093 41.4488 45.6548C42.3979 45.2889 43.1983 44.7915 43.9988 43.9911C44.7992 43.1907 45.2909 42.3845 45.6625 41.4412C46.017 40.5264 46.2628 39.4801 46.3314 37.9422C46.4 36.4042 46.4172 35.9183 46.4172 32.0019C46.4172 28.0856 46.4 27.5996 46.3314 26.0616C46.2628 24.5294 46.017 23.4831 45.6625 22.5626C45.2966 21.6136 44.7992 20.8131 43.9988 20.0127C43.1983 19.2123 42.3922 18.7206 41.4488 18.349C40.5341 17.9945 39.4878 17.7487 37.9499 17.68C36.4062 17.6172 35.9145 17.6 32.0038 17.6Z" fill="white"/>
<path d="M32.0038 24.6094C27.9216 24.6094 24.6056 27.9197 24.6056 32.0076C24.6056 36.0955 27.9159 39.4058 32.0038 39.4058C36.0917 39.4058 39.402 36.0955 39.402 32.0076C39.402 27.9197 36.0917 24.6094 32.0038 24.6094ZM32.0038 36.8044C29.351 36.8044 27.2012 34.6547 27.2012 32.0019C27.2012 29.3491 29.351 27.1993 32.0038 27.1993C34.6566 27.1993 36.8063 29.3491 36.8063 32.0019C36.8063 34.6547 34.6566 36.8044 32.0038 36.8044Z" fill="white"/>
<path d="M39.6936 26.0387C40.6472 26.0387 41.4202 25.2657 41.4202 24.3121C41.4202 23.3585 40.6472 22.5855 39.6936 22.5855C38.74 22.5855 37.967 23.3585 37.967 24.3121C37.967 25.2657 38.74 26.0387 39.6936 26.0387Z" fill="white"/>
<path d="M32 48C23.1634 48 16 40.8366 16 32H0C0 49.6731 14.3269 64 32 64V48ZM48 32C48 40.8366 40.8366 48 32 48V64C49.6731 64 64 49.6731 64 32H48ZM32 16C40.8366 16 48 23.1634 48 32H64C64 14.3269 49.6731 0 32 0V16ZM32 0C14.3269 0 0 14.3269 0 32H16C16 23.1634 23.1634 16 32 16V0Z" fill="#191D21"/>
</svg>
