<svg width="64" height="64" viewBox="0 0 64 64" fill="none" xmlns="http://www.w3.org/2000/svg">
<path d="M8 32C8 18.7452 18.7452 8 32 8V8C45.2548 8 56 18.7452 56 32V32C56 45.2548 45.2548 56 32 56V56C18.7452 56 8 45.2548 8 32V32Z" fill="#191D21"/>
<path d="M43.2512 18.8H20.7488C20.232 18.8 19.7363 19.0053 19.3708 19.3708C19.0053 19.7363 18.8 20.232 18.8 20.7488V43.2512C18.8 43.768 19.0053 44.2637 19.3708 44.6292C19.7363 44.9947 20.232 45.2 20.7488 45.2H43.2512C43.768 45.2 44.2637 44.9947 44.6292 44.6292C44.9947 44.2637 45.2 43.768 45.2 43.2512V20.7488C45.2 20.232 44.9947 19.7363 44.6292 19.3708C44.2637 19.0053 43.768 18.8 43.2512 18.8ZM26.6687 41.2895H22.6995V28.6817H26.6687V41.2895ZM24.6813 26.9345C24.2311 26.932 23.7917 26.7961 23.4186 26.5441C23.0455 26.2921 22.7554 25.9352 22.585 25.5184C22.4145 25.1017 22.3713 24.6438 22.4608 24.2026C22.5503 23.7613 22.7686 23.3565 23.088 23.0391C23.4073 22.7218 23.8136 22.5062 24.2554 22.4195C24.6972 22.3328 25.1548 22.3789 25.5704 22.5521C25.9861 22.7252 26.3411 23.0176 26.5907 23.3923C26.8403 23.767 26.9733 24.2072 26.973 24.6575C26.9772 24.9589 26.9208 25.2581 26.8069 25.5373C26.6931 25.8164 26.5242 26.0698 26.3103 26.2823C26.0965 26.4947 25.842 26.662 25.5622 26.7741C25.2823 26.8861 24.9827 26.9407 24.6813 26.9345ZM41.2987 41.3005H37.3313V34.4127C37.3313 32.3813 36.4678 31.7543 35.3532 31.7543C34.1762 31.7543 33.0212 32.6417 33.0212 34.464V41.3005H29.052V28.6908H32.869V30.438H32.9203C33.3035 29.6625 34.6455 28.337 36.6933 28.337C38.908 28.337 41.3005 29.6515 41.3005 33.5015L41.2987 41.3005Z" fill="white"/>
<path d="M32 48C23.1634 48 16 40.8366 16 32H0C0 49.6731 14.3269 64 32 64V48ZM48 32C48 40.8366 40.8366 48 32 48V64C49.6731 64 64 49.6731 64 32H48ZM32 16C40.8366 16 48 23.1634 48 32H64C64 14.3269 49.6731 0 32 0V16ZM32 0C14.3269 0 0 14.3269 0 32H16C16 23.1634 23.1634 16 32 16V0Z" fill="#191D21"/>
</svg>
